<svg width="512" height="512" viewBox="0 0 512 512" fill="none" xmlns="http://www.w3.org/2000/svg">
<path d="M214.361 91.083C323.999 98.602 412.718 187.346 420.245 296.983C425.935 379.871 386.121 453.917 323.258 496.524C314.308 502.59 302.501 494.083 305.71 483.758C312.913 460.587 316.405 435.786 315.532 410.027C311.747 298.378 223.59 205.535 112.248 196.43C82.674 194.012 54.178 197.403 27.778 205.587C17.331 208.826 8.648 197.167 14.789 188.117C57.453 125.25 131.483 85.399 214.361 91.083Z" fill="#4D4D4D"/>
<path opacity="0.4" d="M381.639 438.583C353.786 287.708 249.007 163.856 109.498 109.223C141.254 95.272 176.911 88.54 214.374 91.077C323.982 98.589 412.712 187.368 420.224 296.975C423.833 349.707 409.053 398.828 381.639 438.583Z" fill="white"/>
<path d="M289.489 391.913C331.925 373.711 376.115 343.821 416.143 303.792C491.671 228.264 500.026 106.608 499.197 47.844C498.92 28.225 483.127 12.432 463.508 12.155C404.745 11.326 283.089 19.68 207.56 95.209C167.532 135.237 137.641 179.428 119.439 221.863L289.489 391.913Z" fill="#F7931A"/>
<path opacity="0.4" d="M496.71 106.979C490.661 168.831 471.296 248.635 416.126 303.805C376.127 343.805 331.932 373.706 289.494 391.901L130.375 232.782C168.228 254.976 212.276 267.659 259.3 267.659C366.956 267.659 459.052 201.173 496.71 106.979Z" fill="white"/>
<path d="M481.709 186.766C497.235 133.498 499.663 80.788 499.198 47.845C498.921 28.226 483.128 12.433 463.509 12.156C430.566 11.691 377.856 14.119 324.588 29.645L481.709 186.766Z" fill="#EFE9E5"/>
<path opacity="0.4" d="M498.856 75.663C497.685 106.931 493.393 146.735 481.685 186.783L324.566 29.663C331.249 27.712 337.883 25.956 344.468 24.444C367.98 60.005 408.321 83.467 454.173 83.467C469.832 83.467 484.905 80.736 498.856 75.663Z" fill="white"/>
<path d="M289.489 391.913L225.486 421.484C217.639 425.11 208.868 426.241 200.358 424.725C191.848 423.209 184.007 419.118 177.895 413.006L97.637 332.748C84.966 320.077 81.668 300.791 89.407 284.63L119.456 221.881L289.489 391.913Z" fill="#EFE9E5"/>
<path opacity="0.4" d="M289.494 391.901L225.495 421.462C209.398 428.925 190.422 425.511 177.886 413.023L97.643 332.732C84.96 320.098 81.643 300.781 89.399 284.635L106.813 248.343C106.764 248.734 106.764 249.075 106.764 249.465C106.764 313.416 158.617 365.17 222.518 365.17C234.713 365.17 246.42 363.317 257.444 359.853L289.494 391.901Z" fill="white"/>
<path d="M362.352 234.344C338.758 257.938 300.604 257.937 277.01 234.344C253.416 210.751 253.416 172.596 277.01 149.002C300.604 125.408 338.759 125.407 362.353 149.001C385.946 172.595 385.945 210.75 362.352 234.344Z" fill="#0D579B"/>
<path opacity="0.4" d="M362.371 234.343C338.762 257.952 300.616 257.952 277.007 234.343C272.365 229.715 268.51 224.36 265.593 218.49C288.178 229.709 316.275 225.905 335.104 207.076C353.933 188.247 357.689 160.101 346.47 137.565C352.226 140.394 357.592 144.199 362.372 148.979C385.931 172.588 385.931 210.734 362.371 234.343Z" fill="white"/>
<path d="M107.745 476.293C87.684 496.355 15.231 499.9 15.231 499.9C15.231 499.9 15.015 423.686 35.076 403.625C55.137 383.564 87.684 383.564 107.745 403.625C127.806 423.686 127.806 456.233 107.745 476.293Z" fill="#F7931A"/>
<path opacity="0.4" d="M107.741 476.29C87.692 496.339 15.255 499.9 15.255 499.9C15.255 499.9 15.206 490.193 16.084 476.779C59.205 473.852 95.839 446.925 112.619 409.268C127.643 429.413 125.985 458.046 107.741 476.29Z" fill="white"/>
<path d="M505.294 47.761C504.968 24.741 486.711 6.399 463.576 6.055C400.643 5.17 285.745 14.442 209.612 84.813C129.393 81.093 54.961 118.061 9.745 184.691C5.477 190.979 5.636 198.977 10.148 205.07C14.671 211.177 22.3 213.659 29.584 211.41C60.432 201.847 92.232 199.709 121.191 203.545C118.591 208.838 116.123 214.143 113.845 219.456C113.838 219.473 113.838 219.492 113.831 219.509L83.908 281.993C75.069 300.457 78.854 322.584 93.326 337.061L173.586 417.319C187.775 431.508 209.636 435.525 228.044 427.018C228.538 426.791 307.165 390.471 307.694 390.212C311.893 422.788 308.69 453.636 299.887 481.948C297.665 489.098 300.135 496.62 306.182 501.103C312.317 505.664 320.37 505.849 326.678 501.575C393.276 456.438 430.267 382.042 426.518 301.781C432.271 295.542 437.673 288.987 442.698 282.148C443.655 280.844 444.056 279.214 443.811 277.615C443.567 276.016 442.698 274.579 441.395 273.621C438.675 271.635 434.864 272.211 432.87 274.926C426.415 283.715 419.332 291.98 411.815 299.497C374.752 336.558 333.01 365.935 290.866 384.652L126.7 220.486C145.419 178.337 174.796 136.594 211.855 99.537C243.329 68.066 282.9 48.476 322.745 36.424L474.802 188.479C470.888 201.459 466.186 214.444 460.509 227.122C460.182 227.853 460.002 228.641 459.979 229.441C459.957 230.242 460.092 231.039 460.378 231.787C460.663 232.535 461.093 233.219 461.643 233.801C462.193 234.383 462.852 234.851 463.583 235.178C464.314 235.505 465.102 235.685 465.902 235.708C466.703 235.73 467.5 235.595 468.248 235.309C468.996 235.024 469.68 234.594 470.262 234.044C470.844 233.494 471.312 232.835 471.639 232.104C496.535 176.502 506.176 109.657 505.294 47.761ZM25.973 199.759C22.515 200.84 20.485 198.54 19.947 197.811C19.413 197.087 17.825 194.505 19.835 191.542C60.494 131.636 126.074 97.023 197.654 96.739C168.941 126.431 145.002 158.855 127.177 192.088C93.087 186.987 58.537 189.665 25.973 199.759ZM222.927 415.947C209.236 422.278 192.873 419.358 182.207 408.697L101.947 328.439C91.126 317.616 88.297 301.067 94.906 287.262L121.235 232.285L278.997 390.047L222.927 415.947ZM414.619 313.69C414.351 385.298 379.727 450.883 319.837 491.474C316.848 493.513 314.194 491.86 313.447 491.307C312.742 490.788 310.52 488.825 311.534 485.567C321.315 454.102 324.493 419.387 319.287 384.161C352.508 366.341 384.926 342.402 414.619 313.69ZM336.299 32.732C384.717 20.056 431.693 17.817 463.421 18.255C479.717 18.483 492.854 31.459 493.098 47.942C493.678 89.167 489.25 134.087 478.574 175.007L336.299 32.732Z" fill="black"/>
<path d="M272.698 144.691C246.791 170.596 246.791 212.749 272.698 238.654C298.608 264.564 340.758 264.559 366.663 238.654C392.57 212.749 392.57 170.596 366.663 144.691C340.756 118.786 298.6 118.787 272.698 144.691ZM358.041 153.314C379.192 174.465 379.192 208.882 358.041 230.032C336.89 251.183 302.471 251.183 281.32 230.032C260.169 208.881 260.169 174.464 281.32 153.314C302.47 132.163 336.89 132.163 358.041 153.314ZM30.765 399.312C9.524 420.558 9.109 491.86 9.133 499.92C9.13587 500.744 9.30551 501.559 9.6317 502.315C9.9579 503.072 10.4339 503.754 11.031 504.322C12.1634 505.399 13.6669 506 15.23 505.999C15.33 505.999 15.428 505.994 15.528 505.989C23.186 505.617 90.941 501.716 112.056 480.604C134.517 458.148 134.517 421.778 112.056 399.313C89.648 376.904 53.178 376.9 30.765 399.312ZM103.434 471.982C89.796 485.616 44.384 491.661 21.399 493.399C21.949 469.381 25.789 421.535 39.386 407.935C57.051 390.28 85.774 390.276 103.433 407.935C121.125 425.626 121.129 454.287 103.434 471.982Z" fill="black"/>
</svg>
